<svg xmlns="http://www.w3.org/2000/svg" width="133" height="33.596" viewBox="0 0 133 33.596"><defs><style>.a,.b{fill:#fff;}.b{font-size:30px;font-family:Gilroy-Bold, Gilroy;font-weight:700;letter-spacing:-0.025em;}.c{font-family:Gilroy-Light, Gilroy;font-weight:300;}</style></defs><g transform="translate(3 1)"><g transform="translate(-3 -1)"><path class="a" d="M23,17.609a3.713,3.713,0,0,0-2.9-1.389H19.33c-1.234,0-1.254.183-1.709,1.17a6.825,6.825,0,0,1-2.3,2.84,6.283,6.283,0,0,1-7.81-9.8h0a6.285,6.285,0,0,1,7.809-.6h0a6.3,6.3,0,0,1,2.526,3.519.661.661,0,0,0,.633.492h.924a3.5,3.5,0,0,0,3.074-1.83A8.14,8.14,0,0,0,15.71.009C15.581,0,15.453,0,15.325,0H.42A.42.42,0,0,0,0,.42V8.579A17.623,17.623,0,0,0,4.468,20.325c.437.489.861.934,1.25,1.325,1.119,1.122,1.943,1.8,1.943,1.8a3.482,3.482,0,0,1-2.084,1.617,3.446,3.446,0,0,1-2.161-.195A8.44,8.44,0,0,0,.669,21.887.42.42,0,0,0,0,22.225V33.176a.42.42,0,0,0,.42.42H15.4A9.835,9.835,0,0,0,23,17.609M4.041,28.112a3.871,3.871,0,0,1-.474-2.7,3.993,3.993,0,0,0,2.1.193,3.564,3.564,0,0,0,2.5-1.967,13.972,13.972,0,0,0,3.755.8c1.3-.064,2.941.056,2.954.808s-1.408,1.807-3.673,2.047-2.865.27-4.127.95c-.139.074-.273.146-.4.21-1.065.529-1.905.694-2.622-.335"/><path class="a" d="M43.393,55.674a3.906,3.906,0,1,0,3.529,5.585,3.895,3.895,0,0,0,.378-1.678,3.869,3.869,0,0,0-.158-1.1,3.655,3.655,0,0,0-.22-.577,3.9,3.9,0,0,0-3.529-2.229" transform="translate(-31.596 -44.548)"/></g><text class="b" transform="translate(30 25.5)"><tspan x="0" y="0">Ball</tspan><tspan class="c" y="0">Kan</tspan></text></g></svg>