<svg xmlns="http://www.w3.org/2000/svg" xmlns:xlink="http://www.w3.org/1999/xlink" width="100.068" height="120" viewBox="0 0 100.068 120"><defs><style>.a{fill:none;}.b{clip-path:url(#a);}.c,.h{fill:#dc6e00;}.c,.d,.f,.g,.l,.m{fill-rule:evenodd;}.d{fill:#644123;}.e{fill:#78502d;}.f{fill:#a53c00;}.g,.i{fill:#f5b98c;}.j{opacity:0.35;}.k{clip-path:url(#c);}.m{fill:#fff;}</style><clipPath id="a"><rect class="a" width="100.068" height="120"/></clipPath><clipPath id="c"><rect class="a" width="15.87" height="23.435"/></clipPath></defs><g class="b"><g transform="translate(0 0)"><g class="b"><path class="c" d="M67.375,12.748a2.743,2.743,0,0,1-.042-5.486c1.246-.012,2.766-.112,4.282-.211,3.794-.251,7.562-.5,10.4.579,4.052,1.541,5.922,4.846,3.258,11.855-2.457,6.464-8.832,14.731-15.82,21.149-6.624,6.083-13.986,10.627-19.473,10.71a2.742,2.742,0,1,1-.064-5.485c4.021-.062,10.074-4,15.816-9.271,6.432-5.907,12.241-13.361,14.4-19.039,1.194-3.141.924-4.406-.051-4.777-1.729-.658-4.912-.448-8.118-.237-1.493.1-2.989.2-4.585.212" transform="translate(13.554 1.963)"/><path class="c" d="M19.182,7.264a2.743,2.743,0,0,1-.045,5.486c-1.6-.015-3.093-.113-4.584-.211-3.206-.211-6.391-.421-8.118.236-.974.369-1.245,1.636-.051,4.777,2.156,5.679,7.966,13.131,14.4,19.039,5.743,5.275,11.8,9.208,15.816,9.27a2.743,2.743,0,1,1-.063,5.486c-5.487-.084-12.851-4.627-19.473-10.712C10.073,34.216,3.7,25.952,1.242,19.488-1.421,12.476.447,9.172,4.5,7.632c2.838-1.079,6.6-.83,10.4-.581,1.515.1,3.036.2,4.284.212" transform="translate(0 1.963)"/><path class="d" d="M76.621,72.715H16.044A3.162,3.162,0,0,0,12.9,75.862v20.11a3.16,3.16,0,0,0,3.146,3.148H76.621a3.157,3.157,0,0,0,3.147-3.148V75.862a3.157,3.157,0,0,0-3.147-3.147" transform="translate(3.704 20.88)"/><rect class="e" width="8.614" height="26.406" transform="translate(58.84 93.596)"/><path class="f" d="M40.694,40.517C40.159,52.877,39.182,66.583,30.2,73.2c-4.187,3-10.082,2.148-10.082,8.763H68.4c0-6.613-5.9-5.759-10.082-8.763-8.977-6.615-9.953-20.32-10.49-32.681Z" transform="translate(5.778 11.634)"/><path class="c" d="M64.108,76.684c-1.832-2.761-5.975-2.825-9.144-5.1-7.211-5.313-9.26-15.2-10.064-25.292-1.417.224-5.505-.884-5.51.731-.015,4.343-.193,8.6-.606,12.524-.627,5.989-1.956,10.053-6.231,14.359-1.561,1.573-1.246,2.685,6,2.774,9.723.118,20.893.1,23.516.1,5.893,0,1.37-.033,2.04-.1" transform="translate(9.128 13.246)"/><path class="g" d="M41.611,49.053c-.12-.027-.931-1.138-1.1-.288-.351,1.766-.063,6.66.018,9.893.122,4.787,0,11.852,3.457,13.533s10.891,1.87,8.123-.246a26.142,26.142,0,0,1-8.327-10.583c-2.173-4.82-1.753-12.214-2.173-12.309" transform="translate(11.584 13.911)"/><path class="f" d="M15.854,2.05a2.557,2.557,0,0,0-2.42,2.494c.963,33.415,21.023,60.1,32.744,60.1S77.957,37.96,78.92,4.545A2.544,2.544,0,0,0,76.5,2.05a225.178,225.178,0,0,0-60.646,0" transform="translate(3.857 0)"/><path class="c" d="M49.307,63.123c11.62-6.111,26.554-29.859,27.38-58.577a2.542,2.542,0,0,0-2.419-2.494,229.224,229.224,0,0,0-53.062-.931c2.578,25.475,13.153,62.795,28.1,62" transform="translate(6.089 0)"/><path class="g" d="M65.787,1.808Q60.522,1.136,55.317.687c.013,2.779-.088,6.558-.423,12.735-1.063,19.541-7.821,33.612-4.475,34.508s9.23-13.895,13.149-33.036c.941-4.586,1.68-9,2.219-13.086" transform="translate(14.213 0.198)"/><rect class="h" width="46.784" height="14.821" transform="translate(26.645 99.388)"/><rect class="i" width="6.367" height="14.821" transform="translate(55.794 99.388)"/><g class="j" transform="translate(42.685 18.102)"><g class="k"><path class="l" d="M40.681,14.064a10.127,10.127,0,0,1,3.031.42,6.582,6.582,0,0,1,2.363,1.283,5.508,5.508,0,0,1,1.521,2.05,6.657,6.657,0,0,1,.5,2.654,6.287,6.287,0,0,1-.237,1.744,5.667,5.667,0,0,1-.709,1.55,6.74,6.74,0,0,1-1.077,1.274,6.5,6.5,0,0,1-.649.521,7.635,7.635,0,0,1,1.019.519A6.182,6.182,0,0,1,47.84,27.23v0a4.451,4.451,0,0,1,.9,1.6,6.575,6.575,0,0,1,.293,2.034,6.809,6.809,0,0,1-.557,2.834,5.451,5.451,0,0,1-1.689,2.108l-.009.005a7.653,7.653,0,0,1-2.551,1.264A11.511,11.511,0,0,1,41,37.5a16.746,16.746,0,0,1-2.014-.118,13.988,13.988,0,0,1-1.877-.355q-.9-.234-1.825-.571t-1.9-.779a.387.387,0,0,1-.2-.51l1.294-3.591a.39.39,0,0,1,.5-.234l.023.009q1.031.444,1.828.758t1.4.508h0a7.466,7.466,0,0,0,1.18.283,8.321,8.321,0,0,0,1.263.094,5.11,5.11,0,0,0,2.791-.6,1.878,1.878,0,0,0,.826-1.678,2.566,2.566,0,0,0-.3-1.285,2.1,2.1,0,0,0-.889-.824,5.753,5.753,0,0,0-1.721-.507,17.256,17.256,0,0,0-2.664-.175h-.373a.389.389,0,0,1-.389-.39v-3.54a.389.389,0,0,1,.389-.39,12.59,12.59,0,0,0,2.513-.21,3.58,3.58,0,0,0,1.46-.588l0,0a2.44,2.44,0,0,0,.74-.9,2.77,2.77,0,0,0,.248-1.2,2.123,2.123,0,0,0-.187-.942,1.352,1.352,0,0,0-.533-.577,3.28,3.28,0,0,0-.88-.376,4.057,4.057,0,0,0-1.035-.126,8.379,8.379,0,0,0-2.263.377,22.033,22.033,0,0,0-3.027,1.158.391.391,0,0,1-.516-.192l-1.448-3.64a.39.39,0,0,1,.2-.494A20.862,20.862,0,0,1,37.3,14.525a13.455,13.455,0,0,1,3.381-.461" transform="translate(-33.163 -14.064)"/></g></g><path class="m" d="M40.681,13.291a10.127,10.127,0,0,1,3.031.42,6.582,6.582,0,0,1,2.363,1.283,5.508,5.508,0,0,1,1.521,2.05,6.657,6.657,0,0,1,.5,2.654,6.287,6.287,0,0,1-.237,1.744,5.667,5.667,0,0,1-.709,1.55,6.74,6.74,0,0,1-1.077,1.274,6.5,6.5,0,0,1-.649.521,7.635,7.635,0,0,1,1.019.519,6.182,6.182,0,0,1,1.391,1.151v0a4.451,4.451,0,0,1,.9,1.6,6.569,6.569,0,0,1,.293,2.034,6.8,6.8,0,0,1-.557,2.834,5.451,5.451,0,0,1-1.689,2.108l-.009.005a7.653,7.653,0,0,1-2.551,1.264,11.511,11.511,0,0,1-3.222.42,16.747,16.747,0,0,1-2.014-.118,13.987,13.987,0,0,1-1.877-.355q-.9-.234-1.825-.573t-1.9-.777a.387.387,0,0,1-.2-.51L34.49,30.8a.391.391,0,0,1,.5-.234l.023.009q1.031.444,1.828.758t1.4.508h0a7.466,7.466,0,0,0,1.18.283,8.322,8.322,0,0,0,1.263.094,5.11,5.11,0,0,0,2.791-.6A1.878,1.878,0,0,0,44.3,29.94a2.559,2.559,0,0,0-.3-1.285,2.1,2.1,0,0,0-.889-.824,5.753,5.753,0,0,0-1.721-.507,17.256,17.256,0,0,0-2.664-.175h-.373a.389.389,0,0,1-.389-.39V23.22a.389.389,0,0,1,.389-.39,12.59,12.59,0,0,0,2.513-.21,3.58,3.58,0,0,0,1.46-.588l0,0a2.44,2.44,0,0,0,.74-.9,2.772,2.772,0,0,0,.248-1.2,2.121,2.121,0,0,0-.187-.941,1.352,1.352,0,0,0-.533-.577,3.28,3.28,0,0,0-.88-.376,4.057,4.057,0,0,0-1.035-.126,8.379,8.379,0,0,0-2.263.377,22.033,22.033,0,0,0-3.027,1.158.391.391,0,0,1-.516-.192l-1.448-3.64a.39.39,0,0,1,.2-.494A20.76,20.76,0,0,1,37.3,13.752a13.455,13.455,0,0,1,3.381-.461" transform="translate(9.523 3.817)"/><path class="m" d="M49.808,21.107a11.354,11.354,0,0,0-.762-14,11.358,11.358,0,0,0,14-.763,11.357,11.357,0,0,0,.759,14,11.357,11.357,0,0,0-14,.761" transform="translate(14.083 1.823)"/><path class="m" d="M37.926,70.892a7.894,7.894,0,0,0-.529-9.726,7.891,7.891,0,0,0,9.727-.529,7.887,7.887,0,0,0,.528,9.726,7.9,7.9,0,0,0-9.726.529" transform="translate(10.738 17.412)"/></g></g></g></svg>