<svg xmlns="http://www.w3.org/2000/svg" xmlns:xlink="http://www.w3.org/1999/xlink" width="100.068" height="120" viewBox="0 0 100.068 120"><defs><style>.a{fill:none;}.b{clip-path:url(#a);}.c,.k{fill:#ffc80f;}.c,.d,.f,.g,.j,.m{fill-rule:evenodd;}.d{fill:#644123;}.e{fill:#78502d;}.f{fill:#eba50f;}.g,.l{fill:#ffe173;}.h{opacity:0.35;}.i{clip-path:url(#c);}.m{fill:#fff;}</style><clipPath id="a"><rect class="a" width="100.068" height="120"/></clipPath><clipPath id="c"><rect class="a" width="13.742" height="22.614"/></clipPath></defs><g class="b"><g class="b"><path class="c" d="M78.833,14.407a2.743,2.743,0,1,1-.042-5.485c1.245-.012,2.766-.112,4.282-.212,3.795-.25,7.563-.5,10.4.58,4.053,1.54,5.922,4.845,3.256,11.855C94.273,27.608,87.9,35.875,80.91,42.292,74.285,48.376,66.923,52.92,61.436,53a2.743,2.743,0,1,1-.064-5.486c4.02-.061,10.074-4,15.816-9.269,6.433-5.909,12.242-13.362,14.4-19.04,1.194-3.141.924-4.407-.051-4.778-1.729-.657-4.912-.446-8.119-.235-1.492.1-2.988.2-4.584.211" transform="translate(2.096 0.303)"/><path class="c" d="M19.181,8.922a2.743,2.743,0,0,1-.044,5.485c-1.6-.014-3.092-.113-4.583-.211-3.207-.211-6.39-.421-8.119.236-.975.37-1.246,1.635-.052,4.778,2.158,5.678,7.968,13.131,14.4,19.039,5.742,5.274,11.8,9.209,15.816,9.27A2.743,2.743,0,1,1,36.534,53c-5.486-.085-12.849-4.628-19.473-10.712C10.074,35.875,3.7,27.608,1.242,21.145-1.422,14.135.446,10.831,4.5,9.289c2.838-1.078,6.6-.83,10.4-.579,1.516.1,3.037.2,4.283.211" transform="translate(0 0.304)"/><path class="d" d="M79.752,90.367H19.176a3.162,3.162,0,0,0-3.147,3.147v20.111a3.159,3.159,0,0,0,3.147,3.148H79.752a3.157,3.157,0,0,0,3.147-3.148V93.514a3.156,3.156,0,0,0-3.147-3.147" transform="translate(0.573 3.229)"/><rect class="e" width="8.614" height="26.405" transform="translate(58.841 93.595)"/><path class="f" d="M45.579,50.352c-.537,12.359-1.513,26.066-10.491,32.68-4.186,3-10.082,2.147-10.082,8.763H73.28c0-6.615-5.894-5.761-10.081-8.763-8.979-6.615-9.955-20.321-10.491-32.68Z" transform="translate(0.894 1.799)"/><path class="c" d="M71.824,87.881c-1.831-2.761-5.975-2.825-9.142-5.1-7.212-5.313-9.26-15.2-10.065-25.293-1.418.225-5.506-.885-5.511.731-.014,4.343-.194,8.6-.6,12.524-.628,5.989-1.958,10.052-6.232,14.359-1.561,1.573-1.246,2.685,6,2.773,9.724.118,20.894.106,23.516.106,5.893,0,1.37-.035,2.04-.1" transform="translate(1.412 2.048)"/><path class="g" d="M51.4,60.811c-.119-.027-.93-1.137-1.1-.288-.351,1.766-.062,6.66.02,9.892.121,4.787,0,11.852,3.456,13.532S64.671,85.819,61.9,83.7a26.141,26.141,0,0,1-8.327-10.582C51.4,68.3,51.823,60.905,51.4,60.811" transform="translate(1.791 2.151)"/><path class="f" d="M19.115,2.05a2.558,2.558,0,0,0-2.419,2.5c.962,33.416,21.023,60.1,32.744,60.1s31.779-26.689,32.743-60.1a2.545,2.545,0,0,0-2.419-2.5,225.192,225.192,0,0,0-60.647,0" transform="translate(0.597 0)"/><path class="c" d="M54.456,63.122C66.076,57.011,81.009,33.263,81.836,4.545a2.545,2.545,0,0,0-2.419-2.5,229.191,229.191,0,0,0-53.063-.929c2.578,25.474,13.153,62.794,28.1,62" transform="translate(0.942 0)"/><path class="g" d="M77.8,1.974Q72.539,1.3,67.334.853c.011,2.778-.088,6.557-.425,12.734C65.847,33.129,59.089,47.2,62.433,48.1S71.664,34.2,75.583,15.06c.94-4.585,1.68-9,2.218-13.086" transform="translate(2.198 0.03)"/><g class="h" transform="translate(43.163 18.337)"><g class="i"><path class="j" d="M55.416,36.6v3.28a.442.442,0,0,1-.442.442H43a.443.443,0,0,1-.443-.442V36.6A.443.443,0,0,1,43,36.155h3.563V22.561l-2.932,1.178a.442.442,0,0,1-.574-.242l-1.349-3.018a.442.442,0,0,1,.214-.58l4.522-2.149a.438.438,0,0,1,.189-.042h4.516a.444.444,0,0,1,.443.443V36.155h3.378a.442.442,0,0,1,.442.442" transform="translate(-41.674 -17.705)"/></g></g><rect class="k" width="46.783" height="14.821" transform="translate(26.645 99.387)"/><rect class="l" width="6.368" height="14.821" transform="translate(55.794 99.387)"/><path class="m" d="M55.416,35.824V39.1a.442.442,0,0,1-.442.442H43a.443.443,0,0,1-.443-.442v-3.28A.443.443,0,0,1,43,35.382h3.563V21.788l-2.932,1.178a.442.442,0,0,1-.574-.242L41.712,19.7a.442.442,0,0,1,.214-.58l4.522-2.149a.438.438,0,0,1,.189-.042h4.516a.444.444,0,0,1,.443.443V35.382h3.378a.442.442,0,0,1,.442.442" transform="translate(1.489 0.605)"/><path class="m" d="M46.322,84.119a8.239,8.239,0,0,0-.553-10.155,8.24,8.24,0,0,0,10.156-.553,8.24,8.24,0,0,0,.552,10.156,8.24,8.24,0,0,0-10.155.552" transform="translate(1.635 2.623)"/><path class="m" d="M64.737,23.44a9.979,9.979,0,0,0-.669-12.3,9.976,9.976,0,0,0,12.3-.671,9.977,9.977,0,0,0,.667,12.3,9.976,9.976,0,0,0-12.294.669" transform="translate(2.289 0.374)"/></g></g></svg>