<svg xmlns="http://www.w3.org/2000/svg" xmlns:xlink="http://www.w3.org/1999/xlink" width="100.068" height="120" viewBox="0 0 100.068 120"><defs><style>.a{fill:none;}.b{clip-path:url(#a);}.c,.h{fill:#bbbfc3;}.c,.d,.f,.g,.l,.m{fill-rule:evenodd;}.d{fill:#644123;}.e{fill:#78502d;}.f{fill:#8d9195;}.g,.i{fill:#eaedf2;}.j{opacity:0.35;}.k{clip-path:url(#c);}.m{fill:#fff;}</style><clipPath id="a"><rect class="a" width="100.068" height="120"/></clipPath><clipPath id="c"><rect class="a" width="15.733" height="22.913"/></clipPath></defs><g class="b"><g transform="translate(0 0)"><g class="b"><path class="c" d="M67.375,12.749a2.743,2.743,0,0,1-.042-5.486c1.246-.012,2.766-.112,4.281-.212,3.8-.25,7.562-.5,10.4.581,4.052,1.539,5.922,4.845,3.256,11.855-2.456,6.464-8.831,14.73-15.819,21.149-6.624,6.083-13.986,10.627-19.473,10.71a2.743,2.743,0,1,1-.064-5.486c4.02-.062,10.073-4,15.815-9.27,6.433-5.908,12.242-13.361,14.4-19.039,1.192-3.141.922-4.407-.053-4.777-1.729-.658-4.912-.448-8.119-.237-1.492.1-2.987.2-4.584.212" transform="translate(13.554 1.963)"/><path class="c" d="M19.181,7.262a2.743,2.743,0,1,1-.044,5.486c-1.595-.015-3.092-.113-4.582-.21-3.208-.211-6.391-.422-8.119.236-.974.369-1.246,1.635-.051,4.777,2.157,5.679,7.967,13.13,14.4,19.038,5.743,5.275,11.8,9.208,15.816,9.27a2.743,2.743,0,0,1-.064,5.486c-5.487-.084-12.85-4.627-19.473-10.71C10.074,34.215,3.7,25.952,1.242,19.486-1.422,12.475.447,9.171,4.5,7.63c2.837-1.077,6.6-.829,10.4-.579,1.516.1,3.038.2,4.282.211" transform="translate(0 1.963)"/><path class="d" d="M76.622,72.715H16.045A3.162,3.162,0,0,0,12.9,75.862v20.11a3.16,3.16,0,0,0,3.146,3.148H76.622a3.157,3.157,0,0,0,3.147-3.148V75.862a3.157,3.157,0,0,0-3.147-3.147" transform="translate(3.704 20.88)"/><rect class="e" width="8.614" height="26.406" transform="translate(58.842 93.596)"/><path class="f" d="M40.694,40.518C40.158,52.877,39.181,66.583,30.2,73.2c-4.186,3-10.081,2.147-10.081,8.763H68.4c0-6.615-5.9-5.76-10.082-8.763-8.978-6.616-9.953-20.321-10.49-32.681Z" transform="translate(5.778 11.635)"/><path class="c" d="M64.106,76.684c-1.83-2.761-5.975-2.825-9.143-5.1-7.211-5.315-9.26-15.2-10.064-25.294-1.417.224-5.506-.884-5.512.732-.014,4.343-.193,8.6-.6,12.523-.628,5.989-1.956,10.053-6.231,14.361-1.561,1.572-1.247,2.685,6,2.772,9.724.118,20.894.1,23.517.1,5.893,0,1.368-.033,2.039-.1" transform="translate(9.128 13.246)"/><path class="g" d="M41.611,49.052c-.12-.027-.931-1.138-1.1-.288-.351,1.766-.063,6.66.019,9.893.121,4.788,0,11.852,3.456,13.533s10.891,1.87,8.124-.246a26.133,26.133,0,0,1-8.328-10.583c-2.173-4.82-1.753-12.214-2.173-12.309" transform="translate(11.584 13.911)"/><path class="f" d="M15.854,2.05a2.557,2.557,0,0,0-2.42,2.494c.963,33.417,21.023,60.1,32.742,60.1S77.957,37.962,78.92,4.545A2.545,2.545,0,0,0,76.5,2.05a225.178,225.178,0,0,0-60.646,0" transform="translate(3.857 0)"/><path class="c" d="M49.308,63.121c11.62-6.111,26.552-29.859,27.38-58.575a2.544,2.544,0,0,0-2.419-2.5,229.3,229.3,0,0,0-53.064-.929c2.578,25.474,13.153,62.793,28.1,62" transform="translate(6.089 0)"/><path class="g" d="M65.786,1.808Q60.523,1.136,55.319.687c.012,2.779-.089,6.558-.425,12.735-1.063,19.541-7.821,33.614-4.477,34.508S59.65,34.036,63.569,14.894c.938-4.586,1.68-9,2.216-13.086" transform="translate(14.213 0.198)"/><rect class="h" width="46.784" height="14.821" transform="translate(26.645 99.388)"/><rect class="i" width="6.367" height="14.821" transform="translate(55.794 99.388)"/><g class="j" transform="translate(42.167 18.233)"><g class="k"><path class="l" d="M32.984,16.545q.987-.539,1.886-.965t1.749-.752a9.4,9.4,0,0,1,1.879-.5,13.43,13.43,0,0,1,2.153-.165,9.018,9.018,0,0,1,2.949.463,7.453,7.453,0,0,1,2.446,1.4,5.994,5.994,0,0,1,1.662,2.255,7.479,7.479,0,0,1,.55,2.941,9.377,9.377,0,0,1-.3,2.41,7.688,7.688,0,0,1-.9,2.106l-.013.018a18.7,18.7,0,0,1-1.524,2.071q-.95,1.141-2.263,2.48l-2.6,2.412H48.1a.391.391,0,0,1,.39.39V36.69a.391.391,0,0,1-.39.39H33.665a.391.391,0,0,1-.39-.39v-3.26a.391.391,0,0,1,.144-.3l1.68-1.539q2-1.757,3.363-3.045t2.125-2.147q.919-1.062,1.516-1.855a9.375,9.375,0,0,0,.829-1.25l.013-.022a4.363,4.363,0,0,0,.362-.967,4.654,4.654,0,0,0,.122-1.081,2.348,2.348,0,0,0-.188-.971,1.962,1.962,0,0,0-.557-.717,2.564,2.564,0,0,0-.972-.469,5.749,5.749,0,0,0-1.483-.169A7.4,7.4,0,0,0,38.961,19a6.1,6.1,0,0,0-1.134.309l-.01,0c-.372.147-.712.291-1.016.434s-.595.292-.847.441c-.27.158-.5.29-.687.391s-.358.189-.475.239a.389.389,0,0,1-.511-.2L32.79,17.047a.389.389,0,0,1,.194-.5" transform="translate(-32.76 -14.165)"/></g></g><path class="m" d="M32.984,15.772q.987-.539,1.886-.965t1.749-.752a9.314,9.314,0,0,1,1.879-.5,13.284,13.284,0,0,1,2.153-.165,9.018,9.018,0,0,1,2.949.463,7.453,7.453,0,0,1,2.446,1.4,5.994,5.994,0,0,1,1.662,2.255,7.479,7.479,0,0,1,.55,2.941,9.377,9.377,0,0,1-.3,2.41,7.688,7.688,0,0,1-.9,2.106l-.013.018a18.7,18.7,0,0,1-1.524,2.071q-.95,1.141-2.263,2.48l-2.6,2.412H48.1a.391.391,0,0,1,.39.39v3.577a.391.391,0,0,1-.39.39H33.665a.391.391,0,0,1-.39-.39v-3.26a.391.391,0,0,1,.144-.3l1.68-1.541q2-1.755,3.363-3.044t2.125-2.147q.919-1.062,1.516-1.855a9.375,9.375,0,0,0,.829-1.25l.013-.022a4.364,4.364,0,0,0,.362-.967,4.654,4.654,0,0,0,.122-1.081,2.348,2.348,0,0,0-.188-.971,1.962,1.962,0,0,0-.557-.717,2.564,2.564,0,0,0-.972-.469,5.749,5.749,0,0,0-1.483-.169,7.4,7.4,0,0,0-1.268.106,6.1,6.1,0,0,0-1.134.309l-.01,0c-.372.147-.712.291-1.016.434s-.595.292-.847.441q-.405.237-.687.391-.3.164-.475.239a.389.389,0,0,1-.511-.2L32.79,16.274a.389.389,0,0,1,.194-.5" transform="translate(9.407 3.846)"/><path class="m" d="M37.367,72.909a9.714,9.714,0,0,0-.651-11.973,9.714,9.714,0,0,0,11.974-.654,9.718,9.718,0,0,0,.65,11.976,9.718,9.718,0,0,0-11.973.651" transform="translate(10.543 17.31)"/><path class="m" d="M30.378,35.944a6.356,6.356,0,0,0-.427-7.834,6.357,6.357,0,0,0,7.835-.427,6.357,6.357,0,0,0,.426,7.835,6.357,6.357,0,0,0-7.834.426" transform="translate(8.6 7.949)"/><path class="m" d="M48.719,19.606a11.356,11.356,0,0,0-.762-14,11.358,11.358,0,0,0,14-.763,11.357,11.357,0,0,0,.759,14,11.357,11.357,0,0,0-14,.761" transform="translate(13.77 1.392)"/></g></g></g></svg>